<svg id="wings_right" data-name="wings right" xmlns="http://www.w3.org/2000/svg" xmlns:xlink="http://www.w3.org/1999/xlink" width="1453" height="1000" viewBox="0 0 1453 1000">
  <defs>
    <style>
      .cls-1, .cls-2, .cls-3, .cls-4, .cls-5 {
        fill-rule: evenodd;
      }

      .cls-1 {
        fill: url(#linear-gradient);
      }

      .cls-2 {
        fill: #1d8059;
      }

      .cls-3 {
        fill: #148650;
      }

      .cls-4 {
        fill: #0b8c47;
      }

      .cls-5 {
        fill: #02923d;
      }
    </style>
    <linearGradient id="linear-gradient" x1="721.814" y1="996.875" x2="721.814" y2="3.125" gradientUnits="userSpaceOnUse">
      <stop offset="0" stop-color="#7000d1"/>
      <stop offset="1" stop-color="#007a33"/>
    </linearGradient>
  </defs>
  <path id="basic_x" data-name="basic x" class="cls-1" d="M437.462,3.125L731.187,382.812,1023.35,3.125h187.48L824.929,487.5,1231.14,996.875H1034.29L723.375,589.062,404.653,996.875H212.482L626.509,487.5,239.042,3.125h198.42Z"/>
  <path id="wing_bottom" data-name="wing bottom" class="cls-2" d="M1076.47,235.937l29.68-39.062h187.49l-29.69,39.062H1076.47Z"/>
  <path id="wing_middle" data-name="wing middle" class="cls-3" d="M1129.59,170.312l29.69-39.062h187.48l-29.69,39.062H1129.59Z"/>
  <path id="wing_under_top" data-name="wing under top" class="cls-4" d="M1181.15,106.25l29.68-39.062h187.49l-29.69,39.063H1181.15Z"/>
  <path id="wing_top" data-name="wing top" class="cls-5" d="M1232.71,42.188l29.68-39.063h187.49l-29.69,39.063H1232.71Z"/>
  <path id="wing_bottom-2" data-name="wing bottom" class="cls-2" d="M374.968,235.937l-29.685-39.062H157.8l29.685,39.062H374.968Z"/>
  <path id="wing_middle-2" data-name="wing middle" class="cls-3" d="M321.847,170.312L292.162,131.25H104.678l29.685,39.062H321.847Z"/>
  <path id="wing_under_top-2" data-name="wing under top" class="cls-4" d="M270.289,106.25L240.6,67.188H53.121L82.805,106.25H270.289Z"/>
  <path id="wing_top-2" data-name="wing top" class="cls-5" d="M218.731,42.188L189.046,3.125H1.562L31.247,42.188H218.731Z"/>
</svg>
